<svg width="705" height="202" viewBox="0 0 705 202" fill="none" xmlns="http://www.w3.org/2000/svg">
<g clip-path="url(#clip0)">
<rect width="705" height="202" fill="white"/>
<path d="M242 103H237H242ZM261.5 103H256.5H261.5ZM294 135.5V140.5V135.5ZM326.5 103L331.5 103L326.5 103ZM294 46C278.883 46 264.384 52.0053 253.695 62.6949L260.766 69.766C269.58 60.9518 281.535 56 294 56V46ZM253.695 62.6949C243.005 73.3845 237 87.8827 237 103H247C247 90.5348 251.952 78.5802 260.766 69.766L253.695 62.6949ZM237 103C237 118.117 243.005 132.616 253.695 143.305L260.766 136.234C251.952 127.42 247 115.465 247 103H237ZM253.695 143.305C264.384 153.995 278.883 160 294 160V150C281.535 150 269.58 145.048 260.766 136.234L253.695 143.305ZM294 160C309.117 160 323.616 153.995 334.305 143.305L327.234 136.234C318.42 145.048 306.465 150 294 150V160ZM334.305 143.305C344.995 132.616 351 118.117 351 103H341C341 115.465 336.048 127.42 327.234 136.234L334.305 143.305ZM351 103C351 87.8827 344.995 73.3845 334.305 62.6949L327.234 69.766C336.048 78.5802 341 90.5348 341 103H351ZM334.305 62.6949C323.616 52.0053 309.117 46 294 46V56C306.465 56 318.42 60.9518 327.234 69.766L334.305 62.6949ZM294 65.5C284.054 65.5 274.516 69.4509 267.483 76.4835L274.555 83.5546C279.712 78.3973 286.707 75.5 294 75.5V65.5ZM267.483 76.4835C260.451 83.5161 256.5 93.0544 256.5 103H266.5C266.5 95.7065 269.397 88.7118 274.555 83.5546L267.483 76.4835ZM256.5 103C256.5 112.946 260.451 122.484 267.483 129.517L274.555 122.445C269.397 117.288 266.5 110.293 266.5 103H256.5ZM267.483 129.517C274.516 136.549 284.054 140.5 294 140.5V130.5C286.707 130.5 279.712 127.603 274.555 122.445L267.483 129.517ZM294 140.5C303.946 140.5 313.484 136.549 320.517 129.517L313.445 122.445C308.288 127.603 301.293 130.5 294 130.5V140.5ZM320.517 129.517C327.549 122.484 331.5 112.946 331.5 103L321.5 103C321.5 110.293 318.603 117.288 313.445 122.445L320.517 129.517ZM331.5 103C331.5 93.0544 327.549 83.5161 320.517 76.4835L313.445 83.5546C318.603 88.7118 321.5 95.7065 321.5 103L331.5 103ZM320.517 76.4835C313.484 69.4509 303.946 65.5 294 65.5V75.5C301.293 75.5 308.288 78.3973 313.445 83.5546L320.517 76.4835ZM271.377 73.0957C259.665 82.4648 252.872 93.932 251.646 107.422C250.436 120.73 254.707 135.314 263.659 150.981L272.341 146.019C263.96 131.352 260.648 118.854 261.604 108.328C262.545 97.9847 267.668 88.8685 277.623 80.9043L271.377 73.0957ZM316.623 132.904C328.314 123.552 335.124 112.209 336.354 98.8154C337.566 85.6111 333.285 71.1381 324.341 55.4858L315.659 60.4472C324.048 75.1283 327.35 87.5053 326.396 97.9011C325.459 108.108 320.353 117.115 310.377 125.096L316.623 132.904Z" fill="#4A849D"/>
<path d="M113 103H108H113ZM132.5 103H127.5H132.5ZM165 135.5V140.5V135.5ZM197.5 103L202.5 103L197.5 103ZM165 46C149.883 46 135.384 52.0053 124.695 62.6949L131.766 69.766C140.58 60.9518 152.535 56 165 56V46ZM124.695 62.6949C114.005 73.3845 108 87.8827 108 103H118C118 90.5348 122.952 78.5802 131.766 69.766L124.695 62.6949ZM108 103C108 118.117 114.005 132.616 124.695 143.305L131.766 136.234C122.952 127.42 118 115.465 118 103H108ZM124.695 143.305C135.384 153.995 149.883 160 165 160V150C152.535 150 140.58 145.048 131.766 136.234L124.695 143.305ZM165 160C180.117 160 194.616 153.995 205.305 143.305L198.234 136.234C189.42 145.048 177.465 150 165 150V160ZM205.305 143.305C215.995 132.616 222 118.117 222 103H212C212 115.465 207.048 127.42 198.234 136.234L205.305 143.305ZM222 103C222 87.8827 215.995 73.3845 205.305 62.6949L198.234 69.766C207.048 78.5802 212 90.5348 212 103H222ZM205.305 62.6949C194.616 52.0053 180.117 46 165 46V56C177.465 56 189.42 60.9518 198.234 69.766L205.305 62.6949ZM165 65.5C155.054 65.5 145.516 69.4509 138.483 76.4835L145.555 83.5546C150.712 78.3973 157.707 75.5 165 75.5V65.5ZM138.483 76.4835C131.451 83.5161 127.5 93.0544 127.5 103H137.5C137.5 95.7065 140.397 88.7118 145.555 83.5546L138.483 76.4835ZM127.5 103C127.5 112.946 131.451 122.484 138.483 129.517L145.555 122.445C140.397 117.288 137.5 110.293 137.5 103H127.5ZM138.483 129.517C145.516 136.549 155.054 140.5 165 140.5V130.5C157.707 130.5 150.712 127.603 145.555 122.445L138.483 129.517ZM165 140.5C174.946 140.5 184.484 136.549 191.517 129.517L184.445 122.445C179.288 127.603 172.293 130.5 165 130.5V140.5ZM191.517 129.517C198.549 122.484 202.5 112.946 202.5 103L192.5 103C192.5 110.293 189.603 117.288 184.445 122.445L191.517 129.517ZM202.5 103C202.5 93.0544 198.549 83.5161 191.517 76.4835L184.445 83.5546C189.603 88.7118 192.5 95.7065 192.5 103L202.5 103ZM191.517 76.4835C184.484 69.4509 174.946 65.5 165 65.5V75.5C172.293 75.5 179.288 78.3973 184.445 83.5546L191.517 76.4835ZM142.377 73.0957C130.665 82.4648 123.872 93.932 122.646 107.422C121.436 120.73 125.707 135.314 134.659 150.981L143.341 146.019C134.96 131.352 131.648 118.854 132.604 108.328C133.545 97.9847 138.668 88.8685 148.623 80.9043L142.377 73.0957ZM187.623 132.904C199.314 123.552 206.124 112.209 207.354 98.8154C208.566 85.6111 204.285 71.1381 195.341 55.4858L186.659 60.4472C195.048 75.1283 198.35 87.5053 197.396 97.9011C196.459 108.108 191.353 117.115 181.377 125.096L187.623 132.904Z" fill="#4A849D"/>
<path d="M356.896 49.592H378.352L401.68 127.784L420.688 49.592H442.288L434.944 76.808L451.648 128.216L470.944 49.592H492.256L463.312 155H439.984L425.728 111.8L413.344 155H390.016L356.896 49.592ZM499.771 155L535.339 49.592H558.235L592.507 155H571.051L563.563 131.672H529.003L521.371 155H499.771ZM534.331 113.816H558.811L547.003 76.088L534.331 113.816ZM603.218 134.552V49.592H623.378V128.936C623.378 130.76 623.57 132.248 623.954 133.4C624.434 134.456 625.202 135.176 626.258 135.56C627.41 135.944 628.322 136.184 628.994 136.28C629.666 136.376 630.77 136.424 632.306 136.424H668.45V155H625.106C610.514 155 603.218 148.184 603.218 134.552Z" fill="#4A849D"/>
<path d="M45.744 151.688L46.032 135.992C50.352 136.376 54.048 136.52 57.12 136.424C60.192 136.232 62.496 135.08 64.032 132.968C65.664 130.76 66.528 127.256 66.624 122.456V49.592H86.784V131.24C86.784 134.216 86.64 136.76 86.352 138.872C86.16 140.984 85.44 143.432 84.192 146.216C83.04 148.904 81.36 150.968 79.152 152.408C75.216 154.808 69.6 155.912 62.304 155.72C55.008 155.528 49.488 154.184 45.744 151.688Z" fill="#4A849D"/>
</g>
<defs>
<clipPath id="clip0">
<rect width="705" height="202" fill="white"/>
</clipPath>
</defs>
</svg>
