<svg width="128" height="128" viewBox="0 0 128 128" fill="none" xmlns="http://www.w3.org/2000/svg">
<g clip-path="url(#clip0)">
<path d="M33.7454 105.011L29.9236 108.235L33.7454 105.011ZM45.1904 95.3562L41.3685 98.5801L45.1904 95.3562ZM80.3562 98.3403L83.5801 102.162L80.3562 98.3403ZM83.3403 63.1745L87.1621 59.9505L83.3403 63.1745ZM35.296 44.9236C26.188 52.6067 20.5052 63.5933 19.4976 75.4664L29.4618 76.312C30.2451 67.0815 34.6631 58.5403 41.7439 52.5672L35.296 44.9236ZM19.4976 75.4664C18.4901 87.3396 22.2404 99.1266 29.9236 108.235L37.5672 101.787C31.5941 94.706 28.6785 85.5424 29.4618 76.312L19.4976 75.4664ZM29.9236 108.235C37.6067 117.343 48.5933 123.025 60.4664 124.033L61.312 114.069C52.0815 113.286 43.5403 108.868 37.5672 101.787L29.9236 108.235ZM60.4664 124.033C72.3395 125.041 84.1266 121.29 93.2346 113.607L86.7868 105.963C79.706 111.937 70.5424 114.852 61.312 114.069L60.4664 124.033ZM93.2346 113.607C102.343 105.924 108.025 94.9374 109.033 83.0642L99.0688 82.2187C98.2855 91.4491 93.8675 99.9904 86.7868 105.963L93.2346 113.607ZM109.033 83.0642C110.041 71.1911 106.29 59.404 98.6071 50.296L90.9634 56.7439C96.9365 63.8247 99.8521 72.9882 99.0688 82.2187L109.033 83.0642ZM98.6071 50.296C90.9239 41.188 79.9373 35.5052 68.0642 34.4977L67.2187 44.4618C76.4491 45.2451 84.9904 49.6631 90.9634 56.7439L98.6071 50.296ZM68.0642 34.4977C56.1911 33.4901 44.404 37.2405 35.296 44.9236L41.7439 52.5672C48.8246 46.5942 57.9882 43.6786 67.2187 44.4618L68.0642 34.4977ZM44.9505 56.3686C38.8779 61.4912 35.089 68.8163 34.4172 76.7325L44.3814 77.578C44.8289 72.3045 47.353 67.4247 51.3984 64.0122L44.9505 56.3686ZM34.4172 76.7325C33.7455 84.6487 36.2459 92.5075 41.3685 98.5801L49.0122 92.1323C45.5996 88.0869 43.9339 82.8516 44.3814 77.578L34.4172 76.7325ZM41.3685 98.5801C46.4911 104.653 53.8163 108.442 61.7325 109.113L62.578 99.1492C57.3045 98.7017 52.4247 96.1777 49.0122 92.1323L41.3685 98.5801ZM61.7325 109.113C69.6487 109.785 77.5075 107.285 83.5801 102.162L77.1322 94.5185C73.0869 97.931 67.8515 99.5967 62.578 99.1492L61.7325 109.113ZM83.5801 102.162C89.6527 97.0395 93.4416 89.7144 94.1134 81.7982L84.1492 80.9526C83.7017 86.2262 81.1776 91.106 77.1322 94.5185L83.5801 102.162ZM94.1134 81.7982C94.7852 73.882 92.2847 66.0231 87.1621 59.9505L79.5185 66.3984C82.931 70.4438 84.5967 75.6791 84.1492 80.9526L94.1134 81.7982ZM87.1621 59.9505C82.0395 53.8779 74.7144 50.089 66.7982 49.4173L65.9526 59.3814C71.2262 59.8289 76.1059 62.353 79.5185 66.3984L87.1621 59.9505ZM66.7982 49.4173C58.882 48.7455 51.0231 51.246 44.9505 56.3686L51.3984 64.0122C55.4438 60.5997 60.6791 58.9339 65.9526 59.3814L66.7982 49.4173ZM35.0427 72.6895C32.757 84.243 34.4753 94.6702 40.6447 103.496C46.709 112.171 56.6777 118.73 69.8138 123.538L73.2513 114.148C61.196 109.735 53.3048 104.152 48.8407 97.7664C44.4819 91.531 43.0034 83.9773 44.8526 74.6303L35.0427 72.6895ZM93.4879 85.8412C95.7683 74.3141 94.126 63.95 88.0039 55.1755C81.9906 46.557 72.0687 40.0692 58.9478 35.2662L55.5103 44.6568C67.5808 49.0753 75.4033 54.5919 79.8028 60.8975C84.0935 67.0472 85.5324 74.5269 83.678 83.9004L93.4879 85.8412Z" fill="#4A849D"/>
<path d="M64.9211 7.77099L64.8246 2.77192L64.9211 7.77099ZM65.2102 22.7414L65.1137 17.7423L65.2102 22.7414ZM40.7414 48.174L35.7423 48.2705L40.7414 48.174ZM66.174 72.6428L66.2705 77.6419L66.174 72.6428ZM110.612 46.8246C110.382 34.911 105.429 23.5768 96.842 15.3153L89.9088 22.5216C96.5844 28.9443 100.435 37.7558 100.614 47.0177L110.612 46.8246ZM96.842 15.3153C88.2552 7.05383 76.7381 2.54184 64.8246 2.77192L65.0176 12.7701C74.2796 12.5912 83.2332 16.0989 89.9088 22.5216L96.842 15.3153ZM64.8246 2.77192C52.911 3.00201 41.5767 7.95532 33.3153 16.5422L40.5216 23.4754C46.9442 16.7998 55.7557 12.9489 65.0176 12.7701L64.8246 2.77192ZM33.3153 16.5422C25.0538 25.1291 20.5418 36.6461 20.7719 48.5597L30.77 48.3666C30.5912 39.1047 34.0989 30.151 40.5216 23.4754L33.3153 16.5422ZM20.7719 48.5597C21.002 60.4732 25.9553 71.8075 34.5422 80.0689L41.4754 72.8626C34.7997 66.44 30.9489 57.6285 30.77 48.3666L20.7719 48.5597ZM34.5422 80.0689C43.129 88.3304 54.6461 92.8424 66.5596 92.6123L66.3665 82.6142C57.1046 82.7931 48.151 79.2853 41.4754 72.8626L34.5422 80.0689ZM66.5596 92.6123C78.4732 92.3822 89.8074 87.4289 98.0689 78.842L90.8626 71.9088C84.4399 78.5845 75.6284 82.4353 66.3665 82.6142L66.5596 92.6123ZM98.0689 78.842C106.33 70.2552 110.842 58.7382 110.612 46.8246L100.614 47.0177C100.793 56.2796 97.2853 65.2332 90.8626 71.9088L98.0689 78.842ZM95.6419 47.1137C95.4885 39.1705 92.1859 31.6136 86.4608 26.1054L79.5276 33.3117C83.3415 36.9811 85.5415 42.0153 85.6437 47.3068L95.6419 47.1137ZM86.4608 26.1054C80.7356 20.5972 73.0568 17.5889 65.1137 17.7423L65.3068 27.7405C70.5983 27.6383 75.7136 29.6423 79.5276 33.3117L86.4608 26.1054ZM65.1137 17.7423C57.1705 17.8958 49.6136 21.1983 44.1054 26.9234L51.3117 33.8566C54.9811 30.0427 60.0153 27.8427 65.3068 27.7405L65.1137 17.7423ZM44.1054 26.9234C38.5972 32.6486 35.5889 40.3274 35.7423 48.2705L45.7405 48.0774C45.6383 42.7859 47.6423 37.6706 51.3117 33.8566L44.1054 26.9234ZM35.7423 48.2705C35.8957 56.2137 39.1983 63.7706 44.9234 69.2788L51.8566 62.0725C48.0427 58.4031 45.8426 53.3689 45.7405 48.0774L35.7423 48.2705ZM44.9234 69.2788C50.6486 74.787 58.3273 77.7953 66.2705 77.6419L66.0774 67.6438C60.7859 67.7459 55.6705 65.7419 51.8566 62.0725L44.9234 69.2788ZM66.2705 77.6419C74.2137 77.4885 81.7706 74.186 87.2788 68.4608L80.0725 61.5276C76.4031 65.3415 71.3689 67.5416 66.0774 67.6438L66.2705 77.6419ZM87.2788 68.4608C92.787 62.7357 95.7953 55.0569 95.6419 47.1137L85.6437 47.3068C85.7459 52.5983 83.7419 57.7137 80.0725 61.5276L87.2788 68.4608ZM89.2068 29.1379C81.6733 20.0851 72.4925 14.8515 61.7518 14.0838C51.1942 13.3293 39.8208 16.9402 27.8116 24.1137L32.9397 32.6987C43.9608 26.1154 53.2671 23.5029 61.0389 24.0584C68.6274 24.6007 75.4254 28.2105 81.5202 35.5345L89.2068 29.1379ZM42.1773 66.2463C49.6936 75.2784 58.7776 80.5313 69.4489 81.3036C79.9304 82.0621 91.2192 78.4427 103.214 71.2775L98.0864 62.6925C87.0513 69.2841 77.8393 71.8846 70.1707 71.3296C62.6917 70.7884 55.976 67.1945 49.864 59.8498L42.1773 66.2463Z" fill="#4A849D"/>
</g>
<defs>
<clipPath id="clip0">
<rect width="128" height="128" fill="white"/>
</clipPath>
</defs>
</svg>
